<?xml version="1.0" encoding="UTF-8"?><svg id="Layer_2" xmlns="http://www.w3.org/2000/svg" viewBox="0 0 431.4565 155.6134"><g id="Components"><g id="_3e5eb38c-2d47-43c1-b02a-bbbaf27f044b_6"><path d="m6.9506,126.2604v-10.2252h20.4505v-5.2573H6.9506v-8.9229h31.4007v-5.2573H1.1628v34.9199h62.1517v-5.2573H6.9506Zm7.1689-10.9244c.0022.0431.0106.0865.0184.1298.0202-.0632.0124-.1282.0009-.1936.0392.1143.1348.1875.2496.2479-.0955.0054-.1911.0108-.2865.0162.0175-.0231.0284-.0467.036-.0705-.0078-.0433-.0162-.0867-.0184-.1298Z" style="fill:#ffffff; stroke-width:0px;"/><path d="m14.3883,115.5201c-.1148-.0604-.2104-.1336-.2496-.2479.0115.0653.0193.1304-.0009.1936.0004.0022.0006.0044.0009.0067-.0004-.0022-.0006-.0044-.0009-.0067-.0076.0238-.0186.0473-.036.0705.0955-.0054.1911-.0108.2865-.0162Z" style="fill:#ffffff; stroke-width:0px;"/><polygon points="325.0034 101.8551 325.0034 96.5978 289.795 96.5978 289.795 131.5177 324.7521 131.5177 324.7521 126.2604 295.5829 126.2604 295.5829 116.0353 316.0332 116.0353 316.0332 110.778 295.5829 110.778 295.5829 101.8551 325.0034 101.8551" style="fill:#ffffff; stroke-width:0px;"/><polygon points="95.5927 125.2476 64.3121 96.5978 57.1249 96.5978 57.1249 116.0353 62.9129 116.0353 62.9129 102.8679 94.2423 131.5177 101.3807 131.5177 101.3807 96.5978 95.5927 96.5978 95.5927 125.2476" style="fill:#ffffff; stroke-width:0px;"/><path d="m140.5756,96.5978h-22.0891v5.2573h22.5725c7.8127,0,13.0216,5.0161,13.0216,12.4438,0,6.9936-4.9674,11.9615-11.9128,11.9615h-17.8935v-13.312h-5.7878v18.5693h23.199c5.0639,0,9.6463-1.6399,13.0226-4.6303,3.7144-3.2315,5.6437-7.5242,5.6437-12.4439,0-10.804-7.5729-17.8458-19.7762-17.8458Z" style="fill:#ffffff; stroke-width:0px;"/><path d="m210.0523,118.8327c0,5.402-4.7755,8.4406-13.9386,8.4406-9.2129,0-14.0359-3.0386-14.0359-8.4406v-22.2349h-5.788v23.6337c0,7.0901,7.572,12.3474,19.8239,12.3474,12.2021,0,19.7264-5.209,19.7264-12.3474v-23.6337h-5.7878v22.2349Z" style="fill:#ffffff; stroke-width:0px;"/><path d="m272.5043,107.5947c0-6.7525-4.4374-10.9969-11.7687-10.9969h-27.5398v5.2573h26.748v.0152c4.457.1548,6.6285,2.0316,6.6285,5.7244,0,3.4038-2.3374,5.3284-6.6285,5.3516v.0022h-26.748v18.5693h5.7878v-13.312h17.6519l9.4535,13.312h6.7046l-9.357-13.6014c5.2091-.8682,9.0677-4.1479,9.0677-10.3216Z" style="fill:#ffffff; stroke-width:0px;"/><path d="m261.4981,112.9484v-.0022c-.026.0001-.0501.0022-.0763.0022h.0763Z" style="fill:#ffffff; stroke-width:0px;"/><polygon points="365.8488 65.5864 330.5442 65.5864 330.5442 55.9681 350.9945 55.9681 350.9945 50.7108 330.5442 50.7108 330.5442 41.0925 350.9945 41.0925 350.9945 35.8352 324.7563 35.8352 324.7563 70.8437 365.8488 70.8437 365.8488 65.5864" style="fill:#ffffff; stroke-width:0px;"/><polygon points="390.3639 35.8352 390.3639 41.0925 425.6685 41.0925 425.6685 50.7108 405.2182 50.7108 405.2182 55.9681 425.6685 55.9681 425.6685 65.5864 405.2182 65.5864 405.2182 70.8437 431.4565 70.8437 431.4565 35.8352 390.3639 35.8352" style="fill:#ffffff; stroke-width:0px;"/><polygon points="390.3639 141.9835 380.7456 141.9835 380.7456 121.5332 375.4883 121.5332 375.4883 141.9835 365.8701 141.9835 365.8701 81.8891 360.6128 81.8891 360.6128 147.7714 395.6212 147.7714 395.6212 65.5864 390.3639 65.5864 390.3639 141.9835" style="fill:#ffffff; stroke-width:0px;"/><polygon points="365.8701 5.788 375.4883 5.788 375.4883 26.2382 380.7456 26.2382 380.7456 5.788 390.3639 5.788 390.3639 26.2382 395.6212 26.2382 395.6212 0 360.6128 0 360.6128 41.0925 365.8701 41.0925 365.8701 5.788" style="fill:#ffffff; stroke-width:0px;"/><polygon points="375.4883 111.9163 380.7456 111.9163 380.7456 55.9681 395.5999 55.9681 395.5999 50.7108 380.7456 50.7108 380.7456 35.6765 375.4883 35.6765 375.4883 50.7108 360.6128 50.7108 360.6128 55.9681 375.4883 55.9681 375.4883 111.9163" style="fill:#ffffff; stroke-width:0px;"/><path d="m3.6768,144.6061c2.2358,0,3.8345,1.4409,3.8345,3.4404,0,1.9214-1.6533,3-3.1021,4.0552-.5591.4014-1.5356,1.1182-1.7007,1.4961h4.9443v1.8579H.2358v-.8896c0-1.7876,1.7402-3.0786,3.0396-4.0312,1.2676-.9292,2.0469-1.5903,2.0469-2.4644,0-.9688-.6533-1.5513-1.6221-1.5513-.9287,0-1.5747.6538-1.9131,1.5825l-1.7871-.8501c.5747-1.5825,2.0547-2.6455,3.6768-2.6455Z" style="fill:#ffffff; stroke-width:0px;"/><path d="m17.1694,144.6061c3.1729,0,4.5117,2.5981,4.5117,5.543s-1.3701,5.4644-4.5117,5.4644-4.5039-2.5195-4.5039-5.4644,1.3389-5.543,4.5039-5.543Zm-2.3306,5.5034c0,1.8896.6616,3.5981,2.3306,3.5981,1.6772,0,2.3384-1.7085,2.3384-3.5981,0-1.8345-.6611-3.5981-2.3384-3.5981s-2.3306,1.7637-2.3306,3.5981Z" style="fill:#ffffff; stroke-width:0px;"/><path d="m30.2358,144.6061c2.2363,0,3.8345,1.4409,3.8345,3.4404,0,1.9214-1.6533,3-3.1021,4.0552-.5591.4014-1.5356,1.1182-1.7007,1.4961h4.9443v1.8579h-7.417v-.8896c0-1.7876,1.7402-3.0786,3.0396-4.0312,1.2676-.9292,2.0469-1.5903,2.0469-2.4644,0-.9688-.6533-1.5513-1.6221-1.5513-.9287,0-1.5747.6538-1.9131,1.5825l-1.7871-.8501c.5747-1.5825,2.0547-2.6455,3.6768-2.6455Z" style="fill:#ffffff; stroke-width:0px;"/><path d="m38.9492,152.9679l1.7163-.8901c.4097,1.0161,1.1577,1.6221,2.1494,1.6221,1.063,0,1.8428-.7085,1.8428-1.6851,0-1.0234-.7637-1.7085-1.9053-1.7085-.7559,0-1.4019.3389-1.8506.7876l-1.4565-.6538.6299-5.6768h6.228v1.874h-4.5039l-.252,2.354c.3232-.2754.9844-.5195,1.7402-.5195,2.063,0,3.5508,1.3857,3.5508,3.5117,0,2.1182-1.6611,3.6299-3.9761,3.6299-1.8896,0-3.2202-.9766-3.9131-2.6455Z" style="fill:#ffffff; stroke-width:0px;"/><path d="m67.8193,155.4557h-7.8813v-10.6924h2.126v8.8579h5.7554v1.8345Z" style="fill:#ffffff; stroke-width:0px;"/><path d="m71.5884,150.1095c0-3.126,2.3623-5.5034,5.4878-5.5034,1.9683,0,3.7402,1,4.7871,2.6689l-1.6768,1.1968c-.7168-1.1812-1.748-1.8975-3.1104-1.8975-1.9448,0-3.3066,1.4644-3.3066,3.5352,0,2.0786,1.417,3.5352,3.3618,3.5352,1.3149,0,2.3462-.5981,3.2363-1.8423l1.5664,1.1338c-1.0312,1.7319-2.8657,2.6772-4.8027,2.6772-3.1099,0-5.543-2.3779-5.543-5.5039Z" style="fill:#ffffff; stroke-width:0px;"/><path d="m87.2446,144.7633h2.252l3.4487,7.1177,3.4404-7.1177h2.252v10.6924h-2.126v-6.5586l-2.8813,5.8423h-1.3779l-2.8818-5.8423v6.5586h-2.126v-10.6924Z" style="fill:#ffffff; stroke-width:0px;"/><path d="m105.8281,151.9518c.5039,1.0317,1.4644,1.7402,2.7476,1.7402,1.0234,0,1.8345-.4961,1.8345-1.189,0-.7085-.7949-1.0864-2.0708-1.4883-2.0547-.6455-3.7319-1.2754-3.7319-3.3379,0-2.0156,1.9766-3.0708,3.7871-3.0708,1.937,0,3.2754,1.1338,3.9526,2.3228l-1.6377,1.165c-.4644-.7793-1.2363-1.5669-2.3701-1.5669-.8267,0-1.5586.4409-1.5586,1.1416,0,.8584.7793.9844,2.1177,1.4565,2.0078.709,3.6772,1.252,3.6772,3.3623,0,2.0942-2.1182,3.126-4.0234,3.126-2.063,0-3.6533-1.0791-4.291-2.5278l1.5669-1.1338Z" style="fill:#ffffff; stroke-width:0px;"/><path d="m126.4702,144.7633l2.6851,4.4961,2.7163-4.4961h2.4565l-4.1255,6.6533v4.0391h-2.1182v-4.0391l-4.1494-6.6533h2.5352Z" style="fill:#ffffff; stroke-width:0px;"/><path d="m138.0332,150.1329c0-3.2358,2.3623-5.5269,5.5981-5.5269,3.252,0,5.606,2.2988,5.606,5.5269s-2.354,5.4805-5.606,5.4805c-3.2358,0-5.5981-2.252-5.5981-5.4805Zm5.606,3.5039c2,0,3.417-1.417,3.417-3.5117,0-2.0786-1.417-3.5352-3.417-3.5352-1.9839,0-3.417,1.4565-3.417,3.5352,0,2.0947,1.4409,3.5117,3.417,3.5117Z" style="fill:#ffffff; stroke-width:0px;"/><path d="m154.7119,151.3927v-6.6294h2.1182v6.5825c0,1.4487,1.0396,2.3618,2.4565,2.3618s2.4565-.9131,2.4565-2.3618v-6.5825h2.1182v6.6294c0,2.5669-1.8345,4.2207-4.5747,4.2207s-4.5747-1.6538-4.5747-4.2207Z" style="fill:#ffffff; stroke-width:0px;"/><path d="m168.8643,144.7633h8.8022v1.8896h-3.3379v8.8027h-2.1182v-8.8027h-3.3462v-1.8896Z" style="fill:#ffffff; stroke-width:0px;"/><path d="m184.9155,144.7633v4.3228h5.2124v-4.3228h2.1177v10.6924h-2.1177v-4.5352h-5.2124v4.5352h-2.126v-10.6924h2.126Z" style="fill:#ffffff; stroke-width:0px;"/><path d="m205.3828,150.1095c0-3.126,2.3623-5.5034,5.4878-5.5034,1.8506,0,3.5591.8818,4.6851,2.5117l-1.6772,1.1968c-.8345-1.2598-1.9209-1.7402-3.0078-1.7402-1.9448,0-3.3066,1.4644-3.3066,3.5352,0,2.0786,1.417,3.5352,3.3618,3.5352,1.7793,0,2.7793-1.0469,3.0234-2.1807h-3.2358v-1.835h5.3853c.0317.2759.0396.5908.0396.8584,0,2.748-1.937,5.126-5.2124,5.126-3.1177,0-5.543-2.3779-5.543-5.5039Z" style="fill:#ffffff; stroke-width:0px;"/><path d="m220.1255,155.4557l4.3145-10.6924h2.4409l4.3223,10.6924h-2.2676l-.7871-2.0942h-4.9604l-.7949,2.0942h-2.2676Zm7.4087-3.7871l-1.8657-4.6851-1.8818,4.6851h3.7476Z" style="fill:#ffffff; stroke-width:0px;"/><path d="m233.6567,144.7633h8.8027v1.8896h-3.3389v8.8027h-2.1177v-8.8027h-3.3462v-1.8896Z" style="fill:#ffffff; stroke-width:0px;"/><path d="m249.708,144.7633v4.3228h5.2124v-4.3228h2.1177v10.6924h-2.1177v-4.5352h-5.2124v4.5352h-2.126v-10.6924h2.126Z" style="fill:#ffffff; stroke-width:0px;"/><path d="m263.3242,144.7633h7.606v1.8423h-5.48v2.4648h4.7554v1.8423h-4.7554v2.7085h5.5981v1.8345h-7.7241v-10.6924Z" style="fill:#ffffff; stroke-width:0px;"/><path d="m276.6353,155.4479v-10.6846h4.7163c2.3228,0,3.8267,1.3857,3.8267,3.4331,0,1.3618-.748,2.48-1.9922,3.0156l2.4175,4.2437h-2.3306l-2.1812-3.8896h-2.3228v3.8818h-2.1338Zm2.1338-5.7241h2.4487c1.1733,0,1.7793-.7163,1.7793-1.5273,0-.8896-.606-1.5908-1.7793-1.5908h-2.4487v3.1182Z" style="fill:#ffffff; stroke-width:0px;"/><path d="m293.0791,155.4557h-2.126v-10.6924h2.126v10.6924Z" style="fill:#ffffff; stroke-width:0px;"/><path d="m299.3701,155.4557v-10.6924h1.9292l5.9131,7.3384v-7.3384h2.126v10.6924h-1.9609l-5.8813-7.2593v7.2593h-2.126Z" style="fill:#ffffff; stroke-width:0px;"/><path d="m314.9233,150.1095c0-3.126,2.3623-5.5034,5.4878-5.5034,1.8506,0,3.5591.8818,4.6851,2.5117l-1.6772,1.1968c-.8345-1.2598-1.9214-1.7402-3.0078-1.7402-1.9448,0-3.3066,1.4644-3.3066,3.5352,0,2.0786,1.417,3.5352,3.3618,3.5352,1.7793,0,2.7793-1.0469,3.0234-2.1807h-3.2358v-1.835h5.3853c.0317.2759.0396.5908.0396.8584,0,2.748-1.937,5.126-5.2124,5.126-3.1177,0-5.543-2.3779-5.543-5.5039Z" style="fill:#ffffff; stroke-width:0px;"/><path d="m3.6768,144.6061c2.2358,0,3.8345,1.4409,3.8345,3.4404,0,1.9214-1.6533,3-3.1021,4.0552-.5591.4014-1.5356,1.1182-1.7007,1.4961h4.9443v1.8579H.2358v-.8896c0-1.7876,1.7402-3.0786,3.0396-4.0312,1.2676-.9292,2.0469-1.5903,2.0469-2.4644,0-.9688-.6533-1.5513-1.6221-1.5513-.9287,0-1.5747.6538-1.9131,1.5825l-1.7871-.8501c.5747-1.5825,2.0547-2.6455,3.6768-2.6455Z" style="fill:#ffffff; stroke-width:0px;"/><path d="m17.1694,144.6061c3.1729,0,4.5117,2.5981,4.5117,5.543s-1.3701,5.4644-4.5117,5.4644-4.5039-2.5195-4.5039-5.4644,1.3389-5.543,4.5039-5.543Zm-2.3306,5.5034c0,1.8896.6616,3.5981,2.3306,3.5981,1.6772,0,2.3384-1.7085,2.3384-3.5981,0-1.8345-.6611-3.5981-2.3384-3.5981s-2.3306,1.7637-2.3306,3.5981Z" style="fill:#ffffff; stroke-width:0px;"/><path d="m30.2358,144.6061c2.2363,0,3.8345,1.4409,3.8345,3.4404,0,1.9214-1.6533,3-3.1021,4.0552-.5591.4014-1.5356,1.1182-1.7007,1.4961h4.9443v1.8579h-7.417v-.8896c0-1.7876,1.7402-3.0786,3.0396-4.0312,1.2676-.9292,2.0469-1.5903,2.0469-2.4644,0-.9688-.6533-1.5513-1.6221-1.5513-.9287,0-1.5747.6538-1.9131,1.5825l-1.7871-.8501c.5747-1.5825,2.0547-2.6455,3.6768-2.6455Z" style="fill:#ffffff; stroke-width:0px;"/><path d="m38.9492,152.9679l1.7163-.8901c.4097,1.0161,1.1577,1.6221,2.1494,1.6221,1.063,0,1.8428-.7085,1.8428-1.6851,0-1.0234-.7637-1.7085-1.9053-1.7085-.7559,0-1.4019.3389-1.8506.7876l-1.4565-.6538.6299-5.6768h6.228v1.874h-4.5039l-.252,2.354c.3232-.2754.9844-.5195,1.7402-.5195,2.063,0,3.5508,1.3857,3.5508,3.5117,0,2.1182-1.6611,3.6299-3.9761,3.6299-1.8896,0-3.2202-.9766-3.9131-2.6455Z" style="fill:#ffffff; stroke-width:0px;"/><path d="m67.8193,155.4557h-7.8813v-10.6924h2.126v8.8579h5.7554v1.8345Z" style="fill:#ffffff; stroke-width:0px;"/><path d="m71.5884,150.1095c0-3.126,2.3623-5.5034,5.4878-5.5034,1.9683,0,3.7402,1,4.7871,2.6689l-1.6768,1.1968c-.7168-1.1812-1.748-1.8975-3.1104-1.8975-1.9448,0-3.3066,1.4644-3.3066,3.5352,0,2.0786,1.417,3.5352,3.3618,3.5352,1.3149,0,2.3462-.5981,3.2363-1.8423l1.5664,1.1338c-1.0312,1.7319-2.8657,2.6772-4.8027,2.6772-3.1099,0-5.543-2.3779-5.543-5.5039Z" style="fill:#ffffff; stroke-width:0px;"/><path d="m87.2446,144.7633h2.252l3.4487,7.1177,3.4404-7.1177h2.252v10.6924h-2.126v-6.5586l-2.8813,5.8423h-1.3779l-2.8818-5.8423v6.5586h-2.126v-10.6924Z" style="fill:#ffffff; stroke-width:0px;"/><path d="m105.8281,151.9518c.5039,1.0317,1.4644,1.7402,2.7476,1.7402,1.0234,0,1.8345-.4961,1.8345-1.189,0-.7085-.7949-1.0864-2.0708-1.4883-2.0547-.6455-3.7319-1.2754-3.7319-3.3379,0-2.0156,1.9766-3.0708,3.7871-3.0708,1.937,0,3.2754,1.1338,3.9526,2.3228l-1.6377,1.165c-.4644-.7793-1.2363-1.5669-2.3701-1.5669-.8267,0-1.5586.4409-1.5586,1.1416,0,.8584.7793.9844,2.1177,1.4565,2.0078.709,3.6772,1.252,3.6772,3.3623,0,2.0942-2.1182,3.126-4.0234,3.126-2.063,0-3.6533-1.0791-4.291-2.5278l1.5669-1.1338Z" style="fill:#ffffff; stroke-width:0px;"/><path d="m126.4702,144.7633l2.6851,4.4961,2.7163-4.4961h2.4565l-4.1255,6.6533v4.0391h-2.1182v-4.0391l-4.1494-6.6533h2.5352Z" style="fill:#ffffff; stroke-width:0px;"/><path d="m138.0332,150.1329c0-3.2358,2.3623-5.5269,5.5981-5.5269,3.252,0,5.606,2.2988,5.606,5.5269s-2.354,5.4805-5.606,5.4805c-3.2358,0-5.5981-2.252-5.5981-5.4805Zm5.606,3.5039c2,0,3.417-1.417,3.417-3.5117,0-2.0786-1.417-3.5352-3.417-3.5352-1.9839,0-3.417,1.4565-3.417,3.5352,0,2.0947,1.4409,3.5117,3.417,3.5117Z" style="fill:#ffffff; stroke-width:0px;"/><path d="m154.7119,151.3927v-6.6294h2.1182v6.5825c0,1.4487,1.0396,2.3618,2.4565,2.3618s2.4565-.9131,2.4565-2.3618v-6.5825h2.1182v6.6294c0,2.5669-1.8345,4.2207-4.5747,4.2207s-4.5747-1.6538-4.5747-4.2207Z" style="fill:#ffffff; stroke-width:0px;"/><path d="m168.8643,144.7633h8.8022v1.8896h-3.3379v8.8027h-2.1182v-8.8027h-3.3462v-1.8896Z" style="fill:#ffffff; stroke-width:0px;"/><path d="m184.9155,144.7633v4.3228h5.2124v-4.3228h2.1177v10.6924h-2.1177v-4.5352h-5.2124v4.5352h-2.126v-10.6924h2.126Z" style="fill:#ffffff; stroke-width:0px;"/><path d="m205.3828,150.1095c0-3.126,2.3623-5.5034,5.4878-5.5034,1.8506,0,3.5591.8818,4.6851,2.5117l-1.6772,1.1968c-.8345-1.2598-1.9209-1.7402-3.0078-1.7402-1.9448,0-3.3066,1.4644-3.3066,3.5352,0,2.0786,1.417,3.5352,3.3618,3.5352,1.7793,0,2.7793-1.0469,3.0234-2.1807h-3.2358v-1.835h5.3853c.0317.2759.0396.5908.0396.8584,0,2.748-1.937,5.126-5.2124,5.126-3.1177,0-5.543-2.3779-5.543-5.5039Z" style="fill:#ffffff; stroke-width:0px;"/><path d="m220.1255,155.4557l4.3145-10.6924h2.4409l4.3223,10.6924h-2.2676l-.7871-2.0942h-4.9604l-.7949,2.0942h-2.2676Zm7.4087-3.7871l-1.8657-4.6851-1.8818,4.6851h3.7476Z" style="fill:#ffffff; stroke-width:0px;"/><path d="m233.6567,144.7633h8.8027v1.8896h-3.3389v8.8027h-2.1177v-8.8027h-3.3462v-1.8896Z" style="fill:#ffffff; stroke-width:0px;"/><path d="m249.708,144.7633v4.3228h5.2124v-4.3228h2.1177v10.6924h-2.1177v-4.5352h-5.2124v4.5352h-2.126v-10.6924h2.126Z" style="fill:#ffffff; stroke-width:0px;"/><path d="m263.3242,144.7633h7.606v1.8423h-5.48v2.4648h4.7554v1.8423h-4.7554v2.7085h5.5981v1.8345h-7.7241v-10.6924Z" style="fill:#ffffff; stroke-width:0px;"/><path d="m276.6353,155.4479v-10.6846h4.7163c2.3228,0,3.8267,1.3857,3.8267,3.4331,0,1.3618-.748,2.48-1.9922,3.0156l2.4175,4.2437h-2.3306l-2.1812-3.8896h-2.3228v3.8818h-2.1338Zm2.1338-5.7241h2.4487c1.1733,0,1.7793-.7163,1.7793-1.5273,0-.8896-.606-1.5908-1.7793-1.5908h-2.4487v3.1182Z" style="fill:#ffffff; stroke-width:0px;"/><path d="m293.0791,155.4557h-2.126v-10.6924h2.126v10.6924Z" style="fill:#ffffff; stroke-width:0px;"/><path d="m299.3701,155.4557v-10.6924h1.9292l5.9131,7.3384v-7.3384h2.126v10.6924h-1.9609l-5.8813-7.2593v7.2593h-2.126Z" style="fill:#ffffff; stroke-width:0px;"/><path d="m314.9233,150.1095c0-3.126,2.3623-5.5034,5.4878-5.5034,1.8506,0,3.5591.8818,4.6851,2.5117l-1.6772,1.1968c-.8345-1.2598-1.9214-1.7402-3.0078-1.7402-1.9448,0-3.3066,1.4644-3.3066,3.5352,0,2.0786,1.417,3.5352,3.3618,3.5352,1.7793,0,2.7793-1.0469,3.0234-2.1807h-3.2358v-1.835h5.3853c.0317.2759.0396.5908.0396.8584,0,2.748-1.937,5.126-5.2124,5.126-3.1177,0-5.543-2.3779-5.543-5.5039Z" style="fill:#ffffff; stroke-width:0px;"/></g></g></svg>